<mxfile host="app.diagrams.net" modified="2023-03-24T10:23:53.856Z" agent="Mozilla/5.0 (Windows NT 10.0; Win64; x64) AppleWebKit/537.36 (KHTML, like Gecko) Chrome/111.0.0.0 Safari/537.36" etag="YrrVZ92TVVU95dajpkD_" version="21.1.0" type="github">
  <diagram id="C5RBs43oDa-KdzZeNtuy" name="Page-1">
    <mxGraphModel dx="1562" dy="837" grid="1" gridSize="10" guides="1" tooltips="1" connect="1" arrows="1" fold="1" page="1" pageScale="1" pageWidth="827" pageHeight="1169" math="0" shadow="0">
      <root>
        <mxCell id="WIyWlLk6GJQsqaUBKTNV-0" />
        <mxCell id="WIyWlLk6GJQsqaUBKTNV-1" parent="WIyWlLk6GJQsqaUBKTNV-0" />
        <mxCell id="hAxZ9yAF2K7ig7bR9tEY-9" style="edgeStyle=orthogonalEdgeStyle;rounded=0;orthogonalLoop=1;jettySize=auto;html=1;exitX=0.5;exitY=1;exitDx=0;exitDy=0;" edge="1" parent="WIyWlLk6GJQsqaUBKTNV-1" source="WIyWlLk6GJQsqaUBKTNV-3" target="hAxZ9yAF2K7ig7bR9tEY-1">
          <mxGeometry relative="1" as="geometry" />
        </mxCell>
        <mxCell id="hAxZ9yAF2K7ig7bR9tEY-13" style="edgeStyle=orthogonalEdgeStyle;rounded=0;orthogonalLoop=1;jettySize=auto;html=1;exitX=1;exitY=0.5;exitDx=0;exitDy=0;" edge="1" parent="WIyWlLk6GJQsqaUBKTNV-1" source="WIyWlLk6GJQsqaUBKTNV-3" target="WIyWlLk6GJQsqaUBKTNV-7">
          <mxGeometry relative="1" as="geometry" />
        </mxCell>
        <mxCell id="WIyWlLk6GJQsqaUBKTNV-3" value="新增产品测评申请" style="rounded=1;whiteSpace=wrap;html=1;fontSize=12;glass=0;strokeWidth=1;shadow=0;fillColor=#dae8fc;strokeColor=#6c8ebf;" parent="WIyWlLk6GJQsqaUBKTNV-1" vertex="1">
          <mxGeometry x="160" y="40" width="120" height="40" as="geometry" />
        </mxCell>
        <mxCell id="hAxZ9yAF2K7ig7bR9tEY-22" style="edgeStyle=orthogonalEdgeStyle;rounded=0;orthogonalLoop=1;jettySize=auto;html=1;exitX=1;exitY=0.5;exitDx=0;exitDy=0;entryX=0;entryY=0.5;entryDx=0;entryDy=0;" edge="1" parent="WIyWlLk6GJQsqaUBKTNV-1" source="WIyWlLk6GJQsqaUBKTNV-7" target="hAxZ9yAF2K7ig7bR9tEY-21">
          <mxGeometry relative="1" as="geometry" />
        </mxCell>
        <mxCell id="WIyWlLk6GJQsqaUBKTNV-7" value="申请中列表" style="rounded=1;whiteSpace=wrap;html=1;fontSize=12;glass=0;strokeWidth=1;shadow=0;fillColor=#dae8fc;strokeColor=#6c8ebf;" parent="WIyWlLk6GJQsqaUBKTNV-1" vertex="1">
          <mxGeometry x="320" y="40" width="120" height="40" as="geometry" />
        </mxCell>
        <mxCell id="hAxZ9yAF2K7ig7bR9tEY-8" style="edgeStyle=orthogonalEdgeStyle;rounded=0;orthogonalLoop=1;jettySize=auto;html=1;exitX=0.5;exitY=1;exitDx=0;exitDy=0;" edge="1" parent="WIyWlLk6GJQsqaUBKTNV-1" source="hAxZ9yAF2K7ig7bR9tEY-1" target="hAxZ9yAF2K7ig7bR9tEY-14">
          <mxGeometry relative="1" as="geometry">
            <mxPoint x="220" y="260" as="targetPoint" />
          </mxGeometry>
        </mxCell>
        <mxCell id="hAxZ9yAF2K7ig7bR9tEY-1" value="产品测评申请管理" style="rounded=1;whiteSpace=wrap;html=1;fontSize=12;glass=0;strokeWidth=1;shadow=0;fillColor=#d5e8d4;strokeColor=#82b366;" vertex="1" parent="WIyWlLk6GJQsqaUBKTNV-1">
          <mxGeometry x="160" y="190" width="120" height="40" as="geometry" />
        </mxCell>
        <mxCell id="hAxZ9yAF2K7ig7bR9tEY-4" style="edgeStyle=orthogonalEdgeStyle;rounded=0;orthogonalLoop=1;jettySize=auto;html=1;exitX=0.875;exitY=0.5;exitDx=0;exitDy=0;exitPerimeter=0;" edge="1" parent="WIyWlLk6GJQsqaUBKTNV-1" source="hAxZ9yAF2K7ig7bR9tEY-2" target="WIyWlLk6GJQsqaUBKTNV-3">
          <mxGeometry relative="1" as="geometry" />
        </mxCell>
        <mxCell id="hAxZ9yAF2K7ig7bR9tEY-2" value="门户网站" style="ellipse;shape=cloud;whiteSpace=wrap;html=1;" vertex="1" parent="WIyWlLk6GJQsqaUBKTNV-1">
          <mxGeometry x="10" y="20" width="120" height="80" as="geometry" />
        </mxCell>
        <mxCell id="hAxZ9yAF2K7ig7bR9tEY-6" style="edgeStyle=orthogonalEdgeStyle;rounded=0;orthogonalLoop=1;jettySize=auto;html=1;exitX=0.875;exitY=0.5;exitDx=0;exitDy=0;exitPerimeter=0;" edge="1" parent="WIyWlLk6GJQsqaUBKTNV-1" source="hAxZ9yAF2K7ig7bR9tEY-5" target="hAxZ9yAF2K7ig7bR9tEY-1">
          <mxGeometry relative="1" as="geometry" />
        </mxCell>
        <mxCell id="hAxZ9yAF2K7ig7bR9tEY-5" value="AI测评系统" style="ellipse;shape=cloud;whiteSpace=wrap;html=1;" vertex="1" parent="WIyWlLk6GJQsqaUBKTNV-1">
          <mxGeometry y="170" width="120" height="80" as="geometry" />
        </mxCell>
        <mxCell id="hAxZ9yAF2K7ig7bR9tEY-19" style="edgeStyle=orthogonalEdgeStyle;rounded=0;orthogonalLoop=1;jettySize=auto;html=1;exitX=0.5;exitY=1;exitDx=0;exitDy=0;" edge="1" parent="WIyWlLk6GJQsqaUBKTNV-1" source="hAxZ9yAF2K7ig7bR9tEY-7" target="hAxZ9yAF2K7ig7bR9tEY-18">
          <mxGeometry relative="1" as="geometry" />
        </mxCell>
        <mxCell id="hAxZ9yAF2K7ig7bR9tEY-50" value="yes" style="edgeLabel;html=1;align=center;verticalAlign=middle;resizable=0;points=[];" vertex="1" connectable="0" parent="hAxZ9yAF2K7ig7bR9tEY-19">
          <mxGeometry x="-0.2373" relative="1" as="geometry">
            <mxPoint as="offset" />
          </mxGeometry>
        </mxCell>
        <mxCell id="hAxZ9yAF2K7ig7bR9tEY-20" style="edgeStyle=orthogonalEdgeStyle;rounded=0;orthogonalLoop=1;jettySize=auto;html=1;exitX=1;exitY=0.5;exitDx=0;exitDy=0;entryX=0.5;entryY=1;entryDx=0;entryDy=0;" edge="1" parent="WIyWlLk6GJQsqaUBKTNV-1" source="hAxZ9yAF2K7ig7bR9tEY-7" target="hAxZ9yAF2K7ig7bR9tEY-21">
          <mxGeometry relative="1" as="geometry">
            <mxPoint x="620" y="180" as="targetPoint" />
          </mxGeometry>
        </mxCell>
        <mxCell id="hAxZ9yAF2K7ig7bR9tEY-49" value="yes" style="edgeLabel;html=1;align=center;verticalAlign=middle;resizable=0;points=[];" vertex="1" connectable="0" parent="hAxZ9yAF2K7ig7bR9tEY-20">
          <mxGeometry x="-0.593" y="-1" relative="1" as="geometry">
            <mxPoint as="offset" />
          </mxGeometry>
        </mxCell>
        <mxCell id="hAxZ9yAF2K7ig7bR9tEY-7" value="申请通过" style="rhombus;whiteSpace=wrap;html=1;shadow=0;fontFamily=Helvetica;fontSize=12;align=center;strokeWidth=1;spacing=6;spacingTop=-4;" vertex="1" parent="WIyWlLk6GJQsqaUBKTNV-1">
          <mxGeometry x="170" y="370" width="100" height="80" as="geometry" />
        </mxCell>
        <mxCell id="hAxZ9yAF2K7ig7bR9tEY-17" style="edgeStyle=orthogonalEdgeStyle;rounded=0;orthogonalLoop=1;jettySize=auto;html=1;exitX=0.5;exitY=1;exitDx=0;exitDy=0;" edge="1" parent="WIyWlLk6GJQsqaUBKTNV-1" source="hAxZ9yAF2K7ig7bR9tEY-14" target="hAxZ9yAF2K7ig7bR9tEY-7">
          <mxGeometry relative="1" as="geometry" />
        </mxCell>
        <mxCell id="hAxZ9yAF2K7ig7bR9tEY-14" value="申请中列表" style="rounded=1;whiteSpace=wrap;html=1;fontSize=12;glass=0;strokeWidth=1;shadow=0;fillColor=#d5e8d4;strokeColor=#82b366;" vertex="1" parent="WIyWlLk6GJQsqaUBKTNV-1">
          <mxGeometry x="160" y="280" width="120" height="40" as="geometry" />
        </mxCell>
        <mxCell id="hAxZ9yAF2K7ig7bR9tEY-18" value="已通过列表" style="rounded=1;whiteSpace=wrap;html=1;fontSize=12;glass=0;strokeWidth=1;shadow=0;fillColor=#d5e8d4;strokeColor=#82b366;" vertex="1" parent="WIyWlLk6GJQsqaUBKTNV-1">
          <mxGeometry x="160" y="500" width="120" height="40" as="geometry" />
        </mxCell>
        <mxCell id="hAxZ9yAF2K7ig7bR9tEY-26" style="edgeStyle=orthogonalEdgeStyle;rounded=0;orthogonalLoop=1;jettySize=auto;html=1;exitX=1;exitY=0.5;exitDx=0;exitDy=0;" edge="1" parent="WIyWlLk6GJQsqaUBKTNV-1" source="hAxZ9yAF2K7ig7bR9tEY-21" target="hAxZ9yAF2K7ig7bR9tEY-25">
          <mxGeometry relative="1" as="geometry" />
        </mxCell>
        <mxCell id="hAxZ9yAF2K7ig7bR9tEY-21" value="已通过列表" style="rounded=1;whiteSpace=wrap;html=1;fontSize=12;glass=0;strokeWidth=1;shadow=0;fillColor=#dae8fc;strokeColor=#6c8ebf;" vertex="1" parent="WIyWlLk6GJQsqaUBKTNV-1">
          <mxGeometry x="490" y="40" width="120" height="40" as="geometry" />
        </mxCell>
        <mxCell id="hAxZ9yAF2K7ig7bR9tEY-24" style="edgeStyle=orthogonalEdgeStyle;rounded=0;orthogonalLoop=1;jettySize=auto;html=1;entryX=0;entryY=0.5;entryDx=0;entryDy=0;exitX=1;exitY=0.3333333333333333;exitDx=0;exitDy=0;exitPerimeter=0;" edge="1" parent="WIyWlLk6GJQsqaUBKTNV-1" source="hAxZ9yAF2K7ig7bR9tEY-29" target="hAxZ9yAF2K7ig7bR9tEY-7">
          <mxGeometry relative="1" as="geometry">
            <mxPoint x="105" y="410" as="sourcePoint" />
          </mxGeometry>
        </mxCell>
        <mxCell id="hAxZ9yAF2K7ig7bR9tEY-27" style="edgeStyle=orthogonalEdgeStyle;rounded=0;orthogonalLoop=1;jettySize=auto;html=1;exitX=0.5;exitY=1;exitDx=0;exitDy=0;" edge="1" parent="WIyWlLk6GJQsqaUBKTNV-1" source="hAxZ9yAF2K7ig7bR9tEY-25" target="hAxZ9yAF2K7ig7bR9tEY-28">
          <mxGeometry relative="1" as="geometry">
            <mxPoint x="639" y="640" as="targetPoint" />
          </mxGeometry>
        </mxCell>
        <mxCell id="hAxZ9yAF2K7ig7bR9tEY-48" value="yes" style="edgeLabel;html=1;align=center;verticalAlign=middle;resizable=0;points=[];" vertex="1" connectable="0" parent="hAxZ9yAF2K7ig7bR9tEY-27">
          <mxGeometry x="-0.3048" relative="1" as="geometry">
            <mxPoint as="offset" />
          </mxGeometry>
        </mxCell>
        <mxCell id="hAxZ9yAF2K7ig7bR9tEY-25" value="已部署" style="rhombus;whiteSpace=wrap;html=1;shadow=0;fontFamily=Helvetica;fontSize=12;align=center;strokeWidth=1;spacing=6;spacingTop=-4;" vertex="1" parent="WIyWlLk6GJQsqaUBKTNV-1">
          <mxGeometry x="769" y="20" width="100" height="80" as="geometry" />
        </mxCell>
        <mxCell id="hAxZ9yAF2K7ig7bR9tEY-35" style="edgeStyle=orthogonalEdgeStyle;rounded=0;orthogonalLoop=1;jettySize=auto;html=1;exitX=0.5;exitY=1;exitDx=0;exitDy=0;" edge="1" parent="WIyWlLk6GJQsqaUBKTNV-1" source="hAxZ9yAF2K7ig7bR9tEY-28" target="hAxZ9yAF2K7ig7bR9tEY-34">
          <mxGeometry relative="1" as="geometry" />
        </mxCell>
        <mxCell id="hAxZ9yAF2K7ig7bR9tEY-28" value="产品测评任务管理" style="rounded=1;whiteSpace=wrap;html=1;fontSize=12;glass=0;strokeWidth=1;shadow=0;fillColor=#ffe6cc;strokeColor=#d79b00;" vertex="1" parent="WIyWlLk6GJQsqaUBKTNV-1">
          <mxGeometry x="759" y="190" width="120" height="40" as="geometry" />
        </mxCell>
        <mxCell id="hAxZ9yAF2K7ig7bR9tEY-29" value="申康审核" style="shape=umlActor;verticalLabelPosition=bottom;verticalAlign=top;html=1;outlineConnect=0;" vertex="1" parent="WIyWlLk6GJQsqaUBKTNV-1">
          <mxGeometry x="45" y="390" width="30" height="60" as="geometry" />
        </mxCell>
        <mxCell id="hAxZ9yAF2K7ig7bR9tEY-39" style="edgeStyle=orthogonalEdgeStyle;rounded=0;orthogonalLoop=1;jettySize=auto;html=1;exitX=0.5;exitY=1;exitDx=0;exitDy=0;" edge="1" parent="WIyWlLk6GJQsqaUBKTNV-1" source="hAxZ9yAF2K7ig7bR9tEY-34" target="hAxZ9yAF2K7ig7bR9tEY-38">
          <mxGeometry relative="1" as="geometry" />
        </mxCell>
        <mxCell id="hAxZ9yAF2K7ig7bR9tEY-34" value="产品测评列表&lt;br&gt;创建测评任务" style="rounded=1;whiteSpace=wrap;html=1;fontSize=12;glass=0;strokeWidth=1;shadow=0;fillColor=#ffe6cc;strokeColor=#d79b00;" vertex="1" parent="WIyWlLk6GJQsqaUBKTNV-1">
          <mxGeometry x="759" y="260" width="120" height="40" as="geometry" />
        </mxCell>
        <mxCell id="hAxZ9yAF2K7ig7bR9tEY-52" style="edgeStyle=orthogonalEdgeStyle;rounded=0;orthogonalLoop=1;jettySize=auto;html=1;exitX=0.5;exitY=1;exitDx=0;exitDy=0;" edge="1" parent="WIyWlLk6GJQsqaUBKTNV-1" source="hAxZ9yAF2K7ig7bR9tEY-38" target="hAxZ9yAF2K7ig7bR9tEY-51">
          <mxGeometry relative="1" as="geometry" />
        </mxCell>
        <mxCell id="hAxZ9yAF2K7ig7bR9tEY-55" value="no" style="edgeLabel;html=1;align=center;verticalAlign=middle;resizable=0;points=[];" vertex="1" connectable="0" parent="hAxZ9yAF2K7ig7bR9tEY-52">
          <mxGeometry x="-0.24" y="1" relative="1" as="geometry">
            <mxPoint as="offset" />
          </mxGeometry>
        </mxCell>
        <mxCell id="hAxZ9yAF2K7ig7bR9tEY-57" style="edgeStyle=orthogonalEdgeStyle;rounded=0;orthogonalLoop=1;jettySize=auto;html=1;exitX=0;exitY=0.5;exitDx=0;exitDy=0;" edge="1" parent="WIyWlLk6GJQsqaUBKTNV-1" source="hAxZ9yAF2K7ig7bR9tEY-38" target="hAxZ9yAF2K7ig7bR9tEY-56">
          <mxGeometry relative="1" as="geometry" />
        </mxCell>
        <mxCell id="hAxZ9yAF2K7ig7bR9tEY-58" value="yes" style="edgeLabel;html=1;align=center;verticalAlign=middle;resizable=0;points=[];" vertex="1" connectable="0" parent="hAxZ9yAF2K7ig7bR9tEY-57">
          <mxGeometry x="-0.6317" relative="1" as="geometry">
            <mxPoint x="-13" as="offset" />
          </mxGeometry>
        </mxCell>
        <mxCell id="hAxZ9yAF2K7ig7bR9tEY-38" value="已完成" style="rhombus;whiteSpace=wrap;html=1;shadow=0;fontFamily=Helvetica;fontSize=12;align=center;strokeWidth=1;spacing=6;spacingTop=-4;" vertex="1" parent="WIyWlLk6GJQsqaUBKTNV-1">
          <mxGeometry x="769" y="330" width="100" height="80" as="geometry" />
        </mxCell>
        <mxCell id="hAxZ9yAF2K7ig7bR9tEY-46" style="edgeStyle=orthogonalEdgeStyle;rounded=0;orthogonalLoop=1;jettySize=auto;html=1;" edge="1" parent="WIyWlLk6GJQsqaUBKTNV-1" source="hAxZ9yAF2K7ig7bR9tEY-51" target="hAxZ9yAF2K7ig7bR9tEY-45">
          <mxGeometry relative="1" as="geometry">
            <mxPoint x="818.9999999999995" y="580" as="sourcePoint" />
          </mxGeometry>
        </mxCell>
        <mxCell id="hAxZ9yAF2K7ig7bR9tEY-44" value="结果列表" style="rounded=1;whiteSpace=wrap;html=1;fontSize=12;glass=0;strokeWidth=1;shadow=0;fillColor=#e1d5e7;strokeColor=#9673a6;" vertex="1" parent="WIyWlLk6GJQsqaUBKTNV-1">
          <mxGeometry x="1009" y="190" width="120" height="40" as="geometry" />
        </mxCell>
        <mxCell id="hAxZ9yAF2K7ig7bR9tEY-47" style="edgeStyle=orthogonalEdgeStyle;rounded=0;orthogonalLoop=1;jettySize=auto;html=1;exitX=1;exitY=0.5;exitDx=0;exitDy=0;entryX=0;entryY=0.5;entryDx=0;entryDy=0;" edge="1" parent="WIyWlLk6GJQsqaUBKTNV-1" source="hAxZ9yAF2K7ig7bR9tEY-45" target="hAxZ9yAF2K7ig7bR9tEY-44">
          <mxGeometry relative="1" as="geometry" />
        </mxCell>
        <mxCell id="hAxZ9yAF2K7ig7bR9tEY-45" value="发布结果" style="rounded=1;whiteSpace=wrap;html=1;fontSize=12;glass=0;strokeWidth=1;shadow=0;fillColor=#ffe6cc;strokeColor=#d79b00;" vertex="1" parent="WIyWlLk6GJQsqaUBKTNV-1">
          <mxGeometry x="759" y="550" width="120" height="40" as="geometry" />
        </mxCell>
        <mxCell id="hAxZ9yAF2K7ig7bR9tEY-51" value="未完成列表&lt;br&gt;任务结果录入" style="rounded=1;whiteSpace=wrap;html=1;fontSize=12;glass=0;strokeWidth=1;shadow=0;fillColor=#ffe6cc;strokeColor=#d79b00;" vertex="1" parent="WIyWlLk6GJQsqaUBKTNV-1">
          <mxGeometry x="759" y="460" width="120" height="40" as="geometry" />
        </mxCell>
        <mxCell id="hAxZ9yAF2K7ig7bR9tEY-56" value="已完成列表" style="rounded=1;whiteSpace=wrap;html=1;fontSize=12;glass=0;strokeWidth=1;shadow=0;fillColor=#ffe6cc;strokeColor=#d79b00;" vertex="1" parent="WIyWlLk6GJQsqaUBKTNV-1">
          <mxGeometry x="560" y="350" width="120" height="40" as="geometry" />
        </mxCell>
        <mxCell id="hAxZ9yAF2K7ig7bR9tEY-59" value="" style="rounded=0;whiteSpace=wrap;html=1;fillColor=none;" vertex="1" parent="WIyWlLk6GJQsqaUBKTNV-1">
          <mxGeometry x="130" y="170" width="1060" height="450" as="geometry" />
        </mxCell>
      </root>
    </mxGraphModel>
  </diagram>
</mxfile>
